<?xml version="1.0" standalone="no"?>
<!DOCTYPE svg PUBLIC "-//W3C//DTD SVG 20010904//EN"
 "http://www.w3.org/TR/2001/REC-SVG-20010904/DTD/svg10.dtd">
<svg version="1.0" xmlns="http://www.w3.org/2000/svg"
 width="552.000000pt" height="522.000000pt" viewBox="0 0 552.000000 522.000000"
 preserveAspectRatio="xMidYMid meet">

<g transform="translate(0.000000,522.000000) scale(0.100000,-0.100000)"
fill="#000000" stroke="none">
<path d="M61 5191 c-17 -17 -18 -138 -19 -2573 -1 -2432 0 -2557 17 -2572 16
-14 255 -16 2705 -16 1478 0 2691 2 2696 5 5 3 13 20 18 38 5 18 8 1169 8
2565 -1 2240 -3 2534 -16 2542 -9 6 -312 10 -770 10 -415 1 -919 3 -1120 5
-201 3 -1071 7 -1933 9 -1493 5 -1569 4 -1586 -13z m439 -38 c0 -3 -12 -26
-26 -51 -24 -41 -70 -158 -114 -292 -35 -106 -73 -279 -101 -460 -6 -36 -14
-191 -18 -345 -7 -255 -10 -289 -34 -375 -36 -133 -54 -197 -72 -260 -9 -30
-19 -65 -22 -77 -3 -12 -11 -28 -19 -34 -12 -9 -13 132 -12 923 1 514 5 944 9
956 8 22 12 22 209 22 110 0 200 -3 200 -7z m4930 -13 c11 -16 11 -118 12
-2240 0 -2174 1 -2162 -12 -2195 -5 -14 -5 -25 0 -27 15 -5 15 -401 0 -424
-16 -25 -142 -133 -186 -160 -32 -20 -49 -21 -289 -22 -159 -1 -256 2 -260 8
-3 6 -12 10 -18 10 -7 0 -6 -4 3 -10 8 -5 10 -10 4 -10 -5 0 -14 4 -20 9 -5 6
-25 7 -49 1 -52 -11 -1273 -6 -1284 6 -5 5 -16 32 -25 59 -9 28 -28 70 -41 94
-14 24 -44 87 -66 140 -22 53 -63 137 -92 186 l-51 90 -3 129 c-3 192 -14 267
-53 374 -11 28 -17 52 -13 52 4 0 27 -19 50 -42 24 -23 43 -37 43 -31 0 20
-155 163 -206 190 -47 24 -55 26 -78 14 -22 -12 -29 -11 -68 11 -38 23 -54 26
-143 25 l-100 0 95 -6 c66 -4 104 -11 123 -24 l27 -17 -34 -48 c-47 -66 -69
-113 -105 -224 -38 -120 -60 -310 -39 -339 7 -10 8 -8 5 9 -3 12 -2 22 1 22 4
0 8 10 9 23 9 126 20 197 31 197 4 0 24 -24 45 -53 21 -28 86 -103 145 -165
l107 -112 -1 -178 c-2 -165 3 -234 21 -340 l7 -42 -86 0 c-62 0 -86 3 -86 13
0 9 -2 9 -9 -1 -6 -11 -37 -13 -127 -12 -66 1 -128 2 -139 2 -409 -3 -2368 0
-2379 4 -13 5 -15 47 -15 324 l0 319 36 53 c65 97 148 171 263 236 67 38 283
142 345 167 39 15 84 33 100 41 17 7 80 33 140 58 61 24 127 52 149 61 21 9
39 15 40 13 1 -2 9 -23 16 -47 8 -24 20 -49 27 -57 7 -7 13 -15 13 -18 0 -3
14 -26 31 -51 54 -79 206 -378 225 -440 16 -53 16 -55 0 -55 -9 0 -28 7 -42
16 -13 9 -27 15 -29 12 -2 -2 21 -19 53 -38 31 -19 89 -55 127 -80 39 -24 81
-50 95 -58 14 -7 52 -30 85 -52 81 -54 236 -150 288 -179 23 -13 53 -31 67
-39 14 -9 30 -17 36 -18 6 -1 30 -14 52 -28 23 -14 42 -23 42 -19 0 5 4 3 8
-3 12 -18 128 -81 163 -89 47 -10 40 -5 -91 62 -63 32 -133 70 -155 84 -22 15
-85 53 -140 85 -55 32 -138 83 -185 113 -47 31 -92 60 -101 66 -23 14 -147 88
-168 100 -34 20 -79 59 -75 66 7 13 -80 216 -99 230 -4 3 -9 14 -11 25 -5 24
-69 145 -104 199 -56 83 -115 213 -108 240 15 60 114 172 259 292 62 52 207
129 207 111 0 -3 -16 -37 -35 -78 -20 -40 -34 -74 -31 -77 5 -6 65 98 91 157
50 118 101 188 129 177 15 -6 14 -46 -5 -132 -9 -47 1 -63 24 -37 16 18 54
145 61 207 2 17 4 34 5 38 0 5 22 -9 49 -31 175 -147 279 -210 560 -339 80
-36 152 -49 211 -37 l50 10 8 -50 c4 -28 7 -57 6 -64 0 -7 2 -11 5 -7 4 3 8
38 9 78 4 116 10 137 38 137 13 0 27 -5 31 -11 4 -6 20 -8 38 -5 48 9 76 -29
137 -191 13 -34 26 -60 30 -57 4 2 -2 28 -13 57 -27 71 -31 87 -24 87 9 0 156
-120 156 -128 0 -4 11 -19 25 -34 14 -15 41 -69 61 -120 31 -82 54 -126 54
-105 0 13 -74 202 -81 207 -3 3 -14 20 -23 37 -9 18 -28 40 -41 49 -32 21 -34
48 -2 39 37 -11 50 -13 102 -20 28 -3 77 -13 109 -21 53 -14 81 -27 188 -86
17 -9 58 -43 91 -75 33 -32 55 -49 49 -38 -16 28 -30 43 -94 102 -31 29 -53
54 -50 56 4 2 54 -4 112 -14 58 -10 128 -21 155 -24 28 -3 66 -10 85 -15 19
-4 64 -11 100 -15 36 -3 97 -12 135 -19 39 -8 106 -19 150 -25 44 -6 136 -20
205 -31 69 -10 150 -22 180 -25 30 -3 71 -8 90 -10 19 -2 64 -7 100 -10 36 -3
79 -8 95 -10 17 -2 24 -1 18 2 -26 10 -11 21 67 53 96 39 131 40 244 5 61 -19
91 -23 103 -16 14 7 10 10 -22 16 -22 4 -65 16 -95 28 -79 31 -159 29 -233 -6
-32 -15 -62 -27 -68 -27 -6 0 -20 -5 -32 -12 -26 -14 -54 -18 -84 -11 -17 4
-26 17 -34 47 -17 63 -138 427 -154 461 -7 17 -25 59 -40 95 -14 36 -37 88
-51 115 -45 94 -23 84 43 -19 25 -39 50 -73 54 -74 5 -2 9 -7 9 -12 0 -5 22
-44 48 -87 42 -67 106 -188 210 -398 33 -66 43 -78 54 -67 16 16 21 278 9 407
-6 66 -14 149 -16 185 -7 88 -59 384 -91 515 -18 73 -82 278 -99 320 -7 17
-26 62 -41 100 -30 74 -98 212 -128 257 -26 39 -4 42 44 5 103 -78 364 -216
439 -232 9 -2 37 -10 64 -18 29 -10 49 -11 53 -5 3 5 -27 44 -68 86 -40 42
-98 111 -128 152 -30 41 -58 77 -62 78 -5 2 -8 8 -8 14 0 5 -17 35 -39 66 -84
125 -144 241 -201 392 -17 47 -42 112 -55 145 -12 33 -29 86 -36 118 -8 31
-18 56 -24 54 -5 -2 -13 -44 -16 -93 -4 -49 -14 -123 -23 -164 -27 -133 -46
-214 -62 -261 -8 -25 -16 -55 -19 -67 -2 -12 -8 -30 -14 -39 -9 -15 -10 -13
-8 12 2 17 6 35 9 40 3 6 9 28 13 50 9 43 9 43 17 65 4 8 11 44 17 80 5 36 12
75 15 88 12 46 14 59 25 152 7 52 16 113 20 135 4 22 4 139 0 260 -6 194 -5
223 10 247 173 283 168 272 246 528 14 47 27 90 29 95 2 7 99 10 275 10 230 0
273 -2 281 -15z m-600 1 c0 -34 -219 -241 -255 -241 -8 0 -15 -4 -15 -9 0 -5
-8 -12 -17 -15 -10 -3 2 11 27 31 58 48 230 222 230 234 0 5 7 9 15 9 8 0 15
-4 15 -9z m-1783 -643 c-4 -129 -14 -208 -42 -353 -6 -34 -46 -209 -50 -223
-3 -7 -5 -14 -5 -17 -6 -35 -149 -422 -188 -510 -123 -273 -207 -432 -365
-692 -61 -100 -228 -312 -292 -371 -37 -34 -62 -62 -55 -62 22 0 140 69 203
118 33 26 78 61 101 78 53 40 265 251 336 335 30 35 89 103 130 150 83 95 141
168 213 268 49 67 157 229 157 235 0 3 93 163 120 206 23 37 191 383 210 431
12 30 27 68 34 84 12 27 44 111 62 160 4 11 8 26 10 33 1 8 4 16 7 18 4 4 67
-92 67 -102 0 -5 95 -208 111 -237 16 -30 68 -177 62 -177 -3 0 -1 -6 5 -12
13 -17 45 -159 37 -167 -7 -6 -10 -7 -117 -11 -100 -5 -73 -17 31 -14 80 2 90
0 94 -17 4 -13 0 -19 -11 -19 -10 0 -24 -5 -32 -11 -13 -9 -12 -10 3 -5 9 3
24 3 32 0 20 -8 19 -34 -1 -34 -8 0 -79 -4 -157 -10 -78 -5 -187 -12 -242 -15
-84 -4 -122 -8 -155 -14 -3 -1 -12 -5 -20 -11 -12 -8 -12 -11 3 -27 14 -16 17
-46 21 -169 3 -132 6 -154 27 -196 32 -63 118 -153 176 -184 42 -22 56 -25
110 -20 91 8 132 33 178 108 47 76 69 120 83 173 31 108 47 261 31 286 -5 8
-9 10 -10 4 -1 -5 -3 -14 -4 -20 -2 -5 -3 -21 -4 -34 0 -13 -3 -22 -6 -19 -9
9 -15 87 -7 92 5 3 68 8 140 12 l132 6 0 -30 c0 -119 -114 -427 -205 -554 -42
-58 -63 -103 -41 -91 17 10 92 98 106 124 13 24 35 26 25 2 -3 -10 -13 -45
-21 -78 -7 -33 -19 -80 -25 -105 -6 -25 -13 -70 -15 -100 -17 -204 -77 -336
-223 -494 -136 -146 -492 -356 -696 -412 -103 -27 -249 -38 -353 -26 -91 10
-285 60 -324 82 -10 6 -24 10 -32 10 -22 0 -113 39 -291 126 -129 64 -210 110
-310 179 -167 114 -401 326 -390 353 15 39 171 242 186 242 5 0 22 -8 37 -19
106 -72 148 -94 226 -121 81 -27 102 -30 216 -30 92 0 131 4 145 14 11 8 26
12 35 9 12 -4 13 -3 1 5 -9 6 -23 7 -37 2 -31 -12 -268 -11 -307 2 -43 14
-157 71 -157 78 0 14 13 18 29 9 48 -27 173 -51 291 -54 78 -2 104 -1 70 4
-30 4 -48 10 -40 13 8 3 61 20 118 39 93 30 121 43 110 54 -2 2 -47 -12 -99
-30 -125 -44 -211 -52 -309 -30 -41 9 -91 18 -110 19 -41 3 -89 23 -148 60
-47 30 -47 33 8 95 l30 35 72 -33 c40 -19 81 -37 90 -42 23 -12 64 -11 108 1
19 5 47 11 62 14 35 6 141 53 193 85 68 42 105 83 160 176 66 111 100 248 56
220 -6 -3 -11 -16 -11 -28 0 -32 -34 -118 -71 -176 -37 -60 -45 -65 -23 -13
61 144 85 238 77 305 -6 52 -9 56 -33 50 -11 -3 -17 -9 -14 -14 8 -14 -3 -10
-20 7 -9 8 -16 24 -16 34 0 17 7 18 98 14 84 -4 95 -3 80 9 -18 15 -25 33 -9
23 5 -4 19 -2 31 2 20 8 21 9 4 23 -11 9 -44 15 -93 16 -42 1 -80 2 -85 3 -5
0 -3 7 4 15 10 12 36 15 118 15 83 0 103 3 94 12 -7 7 -48 15 -92 18 l-81 5
112 145 c61 80 150 203 197 275 47 71 93 141 102 155 62 92 154 258 200 363
11 26 23 47 27 47 3 0 3 -69 0 -152z m-2618 -468 c1 -30 6 -86 12 -125 5 -38
12 -86 15 -105 22 -167 156 -522 263 -695 178 -288 270 -413 393 -534 89 -86
182 -161 202 -161 5 0 25 18 44 41 31 36 36 39 50 25 14 -14 12 -23 -22 -90
l-38 -75 -27 17 c-205 130 -395 322 -538 542 -30 47 -63 96 -72 110 -9 14 -44
79 -78 145 -84 166 -131 293 -192 521 -23 84 -45 352 -35 426 9 65 22 41 23
-42z m3746 -102 c41 -125 84 -291 85 -324 0 -6 -21 -11 -52 -11 -28 -1 -95 -4
-149 -8 -55 -3 -103 -4 -109 0 -12 7 12 35 32 36 10 0 10 2 1 6 -18 7 -16 32
2 39 8 4 15 18 15 33 0 15 4 31 9 36 13 13 76 209 91 279 6 31 15 56 20 56 5
0 30 -64 55 -142z m75 -400 c0 -7 -5 -20 -10 -28 -8 -12 -10 -9 -10 13 0 15 5
27 10 27 6 0 10 -6 10 -12z m-348 -38 c15 -71 -22 -262 -68 -350 -57 -107 -94
-140 -158 -140 -46 0 -131 38 -173 77 -37 35 -68 117 -82 217 -16 111 -14 172
5 190 8 9 16 16 17 16 2 0 2 -44 2 -97 0 -84 4 -109 28 -169 31 -78 58 -110
115 -132 74 -28 106 -27 144 7 58 51 117 218 118 332 0 66 -6 76 -30 47 l-17
-22 0 26 c0 28 17 37 67 34 19 -1 26 -8 32 -36z m-1585 -14 c19 -54 22 -114
11 -176 -5 -30 -10 -62 -11 -70 -1 -8 -13 -44 -26 -80 -36 -94 -121 -177 -214
-208 -89 -30 -185 -32 -248 -4 -26 11 -50 25 -54 32 -10 17 64 83 84 74 50
-21 114 -26 172 -14 50 11 70 22 114 61 29 27 61 66 70 86 27 56 54 189 55
264 0 36 3 69 7 73 13 13 28 -1 40 -38z m1441 36 c19 -13 27 -133 12 -189 -33
-117 -102 -184 -154 -149 -38 25 -71 128 -70 223 0 51 5 87 13 97 8 10 35 16
74 19 34 2 73 4 87 5 14 1 31 -2 38 -6z m-238 -21 c0 -16 -33 -116 -42 -125
-9 -12 -11 43 -2 97 5 27 11 37 25 37 11 0 19 -4 19 -9z m-1280 -71 c0 -5 -4
-10 -10 -10 -5 0 -10 5 -10 10 0 6 5 10 10 10 6 0 10 -4 10 -10z m-74 -86
c-10 -76 -24 -116 -55 -166 -36 -57 -80 -81 -144 -82 -86 0 -82 12 54 149 68
69 126 130 127 135 2 6 8 10 14 10 7 0 8 -17 4 -46z m2299 -16 c-7 -29 -20
-73 -27 -98 -8 -25 -15 -47 -15 -50 -1 -3 -6 -16 -11 -30 -6 -14 -20 -51 -32
-82 -12 -32 -26 -58 -30 -58 -4 0 12 60 37 133 25 72 45 139 46 147 0 8 6 24
13 35 8 11 14 27 14 37 0 10 4 18 9 18 4 0 3 -24 -4 -52z m-168 -65 c-3 -10
-5 -2 -5 17 0 19 2 27 5 18 2 -10 2 -26 0 -35z m-720 -95 c16 -18 13 -35 -5
-24 -16 9 -42 72 -41 98 0 18 4 14 15 -16 8 -22 22 -48 31 -58z m719 10 c-5
-64 -23 -194 -32 -235 -2 -13 -9 -23 -15 -23 -6 0 -8 4 -5 9 3 5 13 71 21 147
16 143 20 164 30 164 4 0 4 -28 1 -62z m-2113 22 c-3 -11 -9 -20 -14 -20 -11
0 -11 3 -3 24 9 23 23 20 17 -4z m2167 -208 c0 -5 -6 -17 -14 -27 -13 -18 -14
-18 -9 8 5 24 23 39 23 19z m-35 -82 c-9 -16 -18 -30 -20 -30 -6 0 6 32 18 48
17 22 18 13 2 -18z m-55 -20 c0 -5 -4 -10 -8 -10 -4 0 -8 -8 -9 -17 -1 -10 -4
-36 -9 -57 -10 -52 11 -40 37 22 11 24 22 42 25 39 6 -6 -32 -85 -51 -103 -23
-23 -38 0 -26 42 5 21 13 51 16 67 5 25 25 39 25 17z m-47 -160 c-3 -11 -7
-20 -9 -20 -2 0 -4 9 -4 20 0 11 4 20 9 20 5 0 7 -9 4 -20z m-4053 -128 c0 -4
-6 -16 -13 -27 -8 -11 -20 -42 -28 -68 -8 -27 -20 -54 -28 -60 -27 -23 -6 88
24 128 26 33 45 45 45 27z m105 -1292 c17 -90 35 -155 55 -196 17 -34 30 -65
30 -70 0 -5 -17 -19 -38 -30 -54 -31 -174 -146 -197 -188 -11 -20 -23 -36 -28
-36 -4 0 -7 94 -7 209 1 200 3 214 30 308 16 54 42 134 58 178 16 44 32 88 36
98 3 9 9 25 13 35 3 9 10 -26 15 -78 4 -52 19 -156 33 -230z m5173 -1152 l-3
-73 -64 -3 c-85 -4 -97 9 -46 51 22 17 53 46 69 64 16 18 34 33 38 33 5 0 8
-33 6 -72z"/>
<path d="M1745 1849 c-8 -12 2 -93 14 -118 48 -100 59 -114 124 -162 37 -27
71 -49 76 -49 5 0 19 -8 32 -18 45 -35 389 -132 389 -111 0 5 -9 9 -21 9 -55
0 -329 110 -432 174 -58 35 -113 93 -132 139 -9 23 -22 53 -28 67 -6 14 -11
37 -11 53 0 30 -2 32 -11 16z"/>
<path d="M2865 1700 c-3 -5 -1 -18 4 -27 9 -16 10 -14 11 10 0 28 -5 34 -15
17z"/>
<path d="M1545 1609 c-4 -6 -5 -12 -2 -15 2 -3 7 2 10 11 7 17 1 20 -8 4z"/>
<path d="M2866 1593 c-2 -10 -8 -29 -12 -43 -6 -21 -5 -23 8 -12 8 6 15 25 16
42 1 34 -4 39 -12 13z"/>
<path d="M1481 1543 c-19 -13 -25 -13 -31 -2 -5 7 -6 -11 -3 -41 5 -55 49
-139 132 -255 90 -126 335 -379 358 -370 8 2 10 -2 6 -13 -5 -15 -3 -14 16 2
20 19 21 20 4 29 -76 40 -154 113 -267 247 -187 223 -252 354 -195 393 11 8
16 17 11 21 -5 3 -19 -2 -31 -11z"/>
<path d="M3067 1423 c-3 -5 -1 -17 4 -28 6 -17 7 -16 6 8 -1 28 -3 32 -10 20z"/>
<path d="M2766 1385 c-9 -26 -7 -32 5 -12 6 10 9 21 6 23 -2 3 -7 -2 -11 -11z"/>
<path d="M2400 1386 c0 -7 40 -14 44 -7 3 4 -6 8 -20 9 -13 1 -24 0 -24 -2z"/>
<path d="M3720 1283 c0 -5 11 -24 25 -43 14 -19 25 -29 25 -23 0 7 -7 18 -15
27 -8 8 -15 19 -15 25 0 5 -4 13 -10 16 -5 3 -10 2 -10 -2z"/>
<path d="M5316 1268 c2 -7 22 -20 43 -29 47 -20 46 -3 0 24 -36 20 -50 22 -43
5z"/>
<path d="M3300 1214 c0 -13 18 -39 24 -34 2 3 -2 14 -10 24 -8 11 -14 16 -14
10z"/>
<path d="M3770 1195 c0 -6 6 -19 14 -30 7 -11 16 -29 19 -40 l5 -20 1 20 c0
11 -8 34 -19 50 -11 17 -20 25 -20 20z"/>
<path d="M3330 1152 c0 -28 43 -100 90 -150 59 -62 66 -59 13 6 -21 25 -52 71
-70 101 -18 31 -33 50 -33 43z"/>
<path d="M3130 1115 c0 -18 -12 -19 -28 -3 -7 7 -12 9 -12 6 0 -4 6 -13 14
-20 19 -20 65 -119 71 -154 3 -25 16 -76 32 -133 2 -8 5 -12 7 -10 5 5 -16
113 -23 119 -3 3 -7 14 -8 25 -6 49 -11 74 -27 128 -17 56 -26 71 -26 42z"/>
<path d="M3826 1075 c4 -16 11 -34 16 -40 7 -7 8 -1 3 15 -12 40 -26 59 -19
25z"/>
<path d="M3866 937 c3 -10 9 -15 12 -12 3 3 0 11 -7 18 -10 9 -11 8 -5 -6z"/>
<path d="M3492 900 c7 -11 16 -20 19 -20 4 0 13 -15 20 -32 7 -18 18 -38 24
-45 30 -36 36 -45 45 -65 6 -16 9 -18 9 -7 1 16 -33 73 -91 156 -25 35 -46 46
-26 13z"/>
<path d="M1990 873 c0 -27 260 -158 330 -167 9 -1 21 -6 29 -10 41 -26 180
-42 204 -24 15 11 8 13 -49 11 -54 -1 -88 6 -183 39 -116 40 -280 116 -313
146 -10 8 -18 10 -18 5z"/>
<path d="M1120 850 c0 -5 5 -10 11 -10 5 0 7 5 4 10 -3 6 -8 10 -11 10 -2 0
-4 -4 -4 -10z"/>
<path d="M1190 816 c0 -2 7 -7 16 -10 8 -3 12 -2 9 4 -6 10 -25 14 -25 6z"/>
<path d="M2037 779 c7 -7 15 -10 18 -7 3 3 -2 9 -12 12 -14 6 -15 5 -6 -5z"/>
<path d="M3220 766 c0 -9 5 -16 10 -16 6 0 10 4 10 9 0 6 -4 13 -10 16 -5 3
-10 -1 -10 -9z"/>
<path d="M2112 715 c26 -25 52 -45 58 -45 6 0 -12 20 -40 45 -66 58 -79 58
-18 0z"/>
<path d="M3231 715 c0 -16 4 -37 9 -45 8 -12 10 -10 9 10 0 14 -4 34 -9 45 -7
17 -9 16 -9 -10z"/>
<path d="M3620 709 c0 -8 10 -25 21 -39 l20 -25 -17 35 c-20 43 -24 47 -24 29z"/>
<path d="M5385 650 c-3 -5 -1 -10 4 -10 6 0 11 5 11 10 0 6 -2 10 -4 10 -3 0
-8 -4 -11 -10z"/>
<path d="M3251 649 c-3 -15 22 -125 30 -135 5 -7 9 -16 7 -20 -1 -5 2 -27 7
-49 10 -47 11 -56 13 -72 1 -7 6 -13 11 -13 6 0 6 13 0 33 -5 17 -12 50 -15
72 -3 22 -9 44 -14 49 -6 6 -10 21 -11 35 0 24 -26 113 -28 100z"/>
<path d="M3666 625 c9 -25 10 -111 0 -145 -6 -22 -5 -22 3 -4 5 12 14 25 20
29 18 11 12 73 -10 107 -12 18 -18 24 -13 13z"/>
<path d="M2230 626 c0 -2 7 -7 16 -10 8 -3 12 -2 9 4 -6 10 -25 14 -25 6z"/>
<path d="M5360 626 c0 -2 7 -7 16 -10 8 -3 12 -2 9 4 -6 10 -25 14 -25 6z"/>
<path d="M5352 590 c-7 -11 -8 -20 -3 -20 9 0 24 30 18 36 -1 2 -8 -6 -15 -16z"/>
<path d="M2270 591 c0 -9 30 -24 36 -18 2 1 -6 8 -16 15 -11 7 -20 8 -20 3z"/>
<path d="M5315 549 c-11 -17 1 -21 15 -4 8 9 8 15 2 15 -6 0 -14 -5 -17 -11z"/>
<path d="M2366 507 c3 -10 9 -15 12 -12 3 3 0 11 -7 18 -10 9 -11 8 -5 -6z"/>
<path d="M3634 425 c-9 -14 -15 -27 -13 -30 3 -2 12 10 21 26 21 36 15 39 -8
4z"/>
<path d="M3600 377 c0 -8 -16 -35 -35 -60 -19 -25 -35 -49 -35 -52 0 -3 -17
-29 -39 -58 -38 -51 -65 -97 -58 -97 2 0 20 24 41 54 20 29 45 61 56 71 18 16
20 16 42 -5 13 -12 37 -28 53 -36 27 -13 26 -11 -10 20 -22 20 -43 36 -47 36
-11 0 -10 34 0 46 26 28 52 83 42 89 -5 3 -10 0 -10 -8z"/>
<path d="M3326 300 c3 -30 10 -84 14 -120 8 -55 8 -50 4 39 -2 57 -9 111 -14
120 -7 11 -8 -1 -4 -39z"/>
<path d="M2600 297 c0 -3 11 -17 25 -31 14 -14 25 -22 25 -17 0 4 -11 18 -25
31 -14 13 -25 21 -25 17z"/>
<path d="M5165 280 c-3 -6 1 -7 9 -4 18 7 21 14 7 14 -6 0 -13 -4 -16 -10z"/>
<path d="M3995 232 c2 -28 32 -99 46 -107 4 -3 1 15 -7 40 -9 25 -20 47 -24
50 -5 3 -7 12 -4 19 3 8 1 16 -4 20 -5 3 -8 -7 -7 -22z"/>
<path d="M5090 250 c-8 -5 -10 -10 -5 -10 6 0 17 5 25 10 8 5 11 10 5 10 -5 0
-17 -5 -25 -10z"/>
<path d="M5014 215 c-17 -13 -16 -14 16 -3 43 14 49 18 24 18 -11 0 -29 -7
-40 -15z"/>
<path d="M5265 211 c-16 -9 -43 -29 -60 -45 l-30 -30 40 24 c22 14 46 30 52
36 7 7 18 14 25 17 7 2 11 7 8 10 -3 2 -18 -3 -35 -12z"/>
<path d="M2670 201 c0 -10 19 -25 25 -20 1 2 -3 10 -11 17 -8 7 -14 8 -14 3z"/>
<path d="M3810 195 c-8 -9 -8 -15 -2 -15 12 0 26 19 19 26 -2 2 -10 -2 -17
-11z"/>
<path d="M4960 190 c-8 -5 -10 -10 -5 -10 6 0 17 5 25 10 8 5 11 10 5 10 -5 0
-17 -5 -25 -10z"/>
<path d="M4909 173 c-13 -16 -12 -17 4 -4 16 13 21 21 13 21 -2 0 -10 -8 -17
-17z"/>
<path d="M2700 162 c0 -5 7 -15 15 -22 8 -7 15 -9 15 -6 0 4 -7 14 -15 22 -8
9 -15 11 -15 6z"/>
<path d="M4840 150 c-13 -9 -13 -10 0 -9 8 0 24 4 35 9 l20 9 -20 0 c-11 0
-27 -4 -35 -9z"/>
<path d="M4740 120 c-12 -7 -10 -9 7 -7 12 0 19 5 17 9 -6 10 -6 10 -24 -2z"/>
<path d="M3675 3670 c-16 -6 -13 -8 13 -7 17 0 32 1 32 2 0 8 -28 11 -45 5z"/>
<path d="M3560 3658 c0 -5 13 -7 30 -6 16 1 27 5 24 8 -9 8 -54 7 -54 -2z"/>
<path d="M3755 3610 c-3 -5 1 -10 10 -10 9 0 13 5 10 10 -3 6 -8 10 -10 10 -2
0 -7 -4 -10 -10z"/>
<path d="M3795 3610 c3 -5 8 -10 11 -10 2 0 4 5 4 10 0 6 -5 10 -11 10 -5 0
-7 -4 -4 -10z"/>
<path d="M3493 3602 c-29 -2 -53 -8 -53 -14 0 -5 7 -7 16 -4 8 3 75 9 147 12
73 4 134 8 137 11 4 4 -136 1 -247 -5z"/>
<path d="M3410 3590 c0 -5 5 -10 10 -10 6 0 10 5 10 10 0 6 -4 10 -10 10 -5 0
-10 -4 -10 -10z"/>
<path d="M3830 2803 c-8 -2 -24 -9 -35 -14 -57 -25 -209 -28 -282 -4 -13 4
-23 3 -23 -2 0 -15 96 -43 147 -43 62 0 173 27 208 50 28 18 20 25 -15 13z"/>
<path d="M3820 2733 c-13 -9 -42 -17 -64 -19 -61 -3 -119 -16 -133 -29 -14
-14 -96 -12 -163 4 -25 6 -49 10 -55 10 -18 0 30 -24 75 -37 55 -16 312 -28
290 -13 -8 5 -30 8 -48 7 -18 -1 -35 1 -38 6 -3 4 1 8 9 8 8 0 20 6 27 14 6 8
17 13 25 10 13 -5 110 31 130 48 18 16 -30 8 -55 -9z"/>
<path d="M3040 2391 c-47 -39 -119 -94 -160 -124 -41 -30 -86 -66 -99 -81 -22
-23 -23 -28 -10 -41 18 -18 103 -35 173 -35 70 0 42 16 -43 25 -36 4 -77 12
-90 19 l-24 13 44 30 c24 17 98 74 163 127 65 53 123 96 128 96 8 0 1 -157 -9
-172 -2 -5 1 -8 6 -8 6 0 11 3 12 8 0 4 2 21 4 37 14 106 12 175 -4 175 -3 0
-44 -31 -91 -69z"/>
<path d="M4008 3623 c7 -3 16 -2 19 1 4 3 -2 6 -13 5 -11 0 -14 -3 -6 -6z"/>
<path d="M4078 3623 c7 -3 16 -2 19 1 4 3 -2 6 -13 5 -11 0 -14 -3 -6 -6z"/>
</g>
</svg>
